<?xml version="1.0" encoding="utf-8"?>
<!-- Generator: Adobe Illustrator 23.0.1, SVG Export Plug-In . SVG Version: 6.00 Build 0)  -->
<svg version="1.1" id="Layer_1" xmlns="http://www.w3.org/2000/svg" xmlns:xlink="http://www.w3.org/1999/xlink" x="0px" y="0px"
	 viewBox="0 0 198 198" style="enable-background:new 0 0 198 198;" xml:space="preserve">
<style type="text/css">
	.st0{fill:#FFFFFF;}
</style>
<g>
	<path class="st0" d="M34.58,123.16c-0.51,0.51-1.43,1.05-2.77,1.64s-3.02,0.88-5.05,0.88c-3.83,0-6.93-1.09-9.29-3.27
		c-2.36-2.18-3.54-5.49-3.54-9.93c0-3.55,1.22-6.69,3.65-9.42c2.43-2.73,5.53-4.09,9.3-4.09c1.55,0,2.96,0.13,4.22,0.39
		s2.22,0.55,2.88,0.85v7.36c-1.2-0.83-2.3-1.4-3.29-1.71s-2.1-0.46-3.33-0.46c-1.92,0-3.42,0.6-4.5,1.81
		c-1.08,1.21-1.61,3.02-1.61,5.45c0,2.3,0.64,4.02,1.91,5.16c1.28,1.14,2.78,1.7,4.52,1.7c1.54,0,2.84-0.23,3.9-0.7
		s2.06-1.08,3-1.83V123.16z"/>
	<path class="st0" d="M62.53,121.38l-5.56,4.55c-0.85-0.28-1.58-0.72-2.21-1.32s-1.05-1.28-1.25-2.05l-4.34,2.47
		c-0.17,0.09-0.46,0.19-0.87,0.29s-0.75,0.15-1.03,0.15c-3.34,0-6.09-1.15-8.27-3.44s-3.26-5.48-3.26-9.55
		c0-3.88,1.13-7.07,3.39-9.59s5.14-3.77,8.65-3.77c1.4,0,2.71,0.28,3.92,0.83s2.01,1.05,2.4,1.48l4.01-1.45l1.41,0.42v15.83
		c0,1.38,0.24,2.48,0.73,3.3S61.5,120.95,62.53,121.38z M52.78,117.92V107.1c-0.46-0.58-1.07-1.07-1.81-1.48
		c-0.75-0.41-1.66-0.62-2.73-0.62c-1.55,0-2.84,0.57-3.86,1.7c-1.02,1.13-1.53,3.01-1.53,5.63c0,2.08,0.48,3.75,1.43,5
		c0.95,1.26,2.29,1.88,4.01,1.88c0.98,0,1.91-0.15,2.77-0.46S52.48,118.16,52.78,117.92z"/>
	<path class="st0" d="M81.19,107.84c-0.45-0.35-1.07-0.67-1.88-0.93c-0.81-0.27-1.76-0.4-2.85-0.4c-1.28,0-2.35,0.19-3.23,0.57
		s-1.61,0.84-2.19,1.4v16.73h-7.06v-24.8l7.06-0.51v2.47l2.24-1.38c0.69-0.43,1.49-0.79,2.39-1.07c0.9-0.28,1.73-0.43,2.48-0.43
		c0.8,0,1.44,0.05,1.93,0.15c0.48,0.1,0.86,0.21,1.12,0.33V107.84z"/>
	<path class="st0" d="M107.48,113.83H89.05c0.38,2.01,1.18,3.47,2.39,4.36c1.21,0.89,2.67,1.34,4.39,1.34c1.38,0,2.91-0.2,4.59-0.61
		s3-0.94,3.97-1.6v6.25c-0.91,0.65-2.27,1.16-4.09,1.53c-1.82,0.38-3.29,0.57-4.4,0.57c-4.38,0-7.81-1.2-10.27-3.59
		s-3.69-5.59-3.69-9.61c0-4.05,1.26-7.31,3.77-9.79c2.51-2.48,5.66-3.73,9.42-3.73s6.77,1.33,9.01,3.98
		C106.39,105.59,107.5,109.22,107.48,113.83z M100.97,110.49c-0.35-1.85-1.07-3.24-2.13-4.18s-2.4-1.41-3.98-1.41
		c-1.85,0-3.24,0.51-4.18,1.52s-1.51,2.37-1.71,4.06H100.97z"/>
	<g>
		<path class="st0" d="M158.97,113.83h-18.43c0.38,2.01,1.18,3.47,2.39,4.36c1.21,0.89,2.67,1.34,4.39,1.34
			c1.38,0,2.91-0.2,4.59-0.61s3-0.94,3.97-1.6v6.25c-0.91,0.65-2.27,1.16-4.09,1.53c-1.82,0.38-3.29,0.57-4.4,0.57
			c-4.38,0-7.81-1.2-10.27-3.59s-3.69-5.59-3.69-9.61c0-4.05,1.26-7.31,3.77-9.79c2.51-2.48,5.66-3.73,9.42-3.73
			c3.77,0,6.77,1.33,9.01,3.98C157.87,105.59,158.98,109.22,158.97,113.83z M152.46,110.49c-0.35-1.85-1.07-3.24-2.13-4.18
			s-2.4-1.41-3.98-1.41c-1.85,0-3.24,0.51-4.18,1.52s-1.51,2.37-1.71,4.06H152.46z"/>
		<path class="st0" d="M184.07,125.19h-7.06v-15.57c0-0.91-0.32-1.71-0.97-2.41s-1.64-1.05-2.98-1.05c-1.28,0-2.35,0.27-3.21,0.8
			s-1.55,1.03-2.05,1.49v16.75h-7.06v-24.8l7.06-0.51v2.42l2.93-1.68c0.88-0.51,1.78-0.87,2.69-1.1s1.83-0.33,2.74-0.33
			c2.45,0,4.38,0.76,5.79,2.27s2.11,3.51,2.11,5.99V125.19z"/>
		<path class="st0" d="M127.4,101.89c-1.3,1.7-1.86,2.76-3.16,5.41l-3.68,7.43l-3.68-7.43c-1.3-2.65-1.86-3.71-3.16-5.41
			c-2.44-3.19-7.83-5.64-12.84-4.18c1.15,0.52,2.2,1.21,3.17,2.05c0.53,0.46,1.03,0.95,1.51,1.5c0.02,0.03,0.05,0.05,0.07,0.08
			c0.03,0.03,0.05,0.06,0.07,0.09c0.16,0.2,0.31,0.4,0.46,0.61c0.18,0.24,0.36,0.48,0.52,0.73c0.64,0.95,1.25,2,1.82,3.17
			l9.21,18.92h0.02h0.04h5.59h0.04h0.02l9.21-18.92c0.57-1.17,1.18-2.22,1.82-3.17c0.16-0.25,0.34-0.49,0.52-0.73
			c0.15-0.21,0.31-0.42,0.46-0.61c0.02-0.03,0.05-0.06,0.07-0.09c0.02-0.03,0.05-0.05,0.07-0.08c0.47-0.55,0.98-1.04,1.51-1.5
			c0.97-0.84,2.02-1.53,3.17-2.05C135.23,96.25,129.84,98.7,127.4,101.89z"/>
	</g>
	<g>
		<path class="st0" d="M120.2,47.32c-1.22,0.56-2.33,1.3-3.36,2.19c-0.58,0.5-1.14,1.04-1.66,1.65c-0.03,0.03-0.05,0.05-0.08,0.08
			c-0.03,0.03-0.05,0.07-0.08,0.1c-0.17,0.22-0.34,0.44-0.51,0.67c-0.2,0.26-0.39,0.53-0.57,0.8c-0.7,1.05-1.37,2.21-2,3.49
			l-10.13,20.81h-0.02h-0.04H95.6h-0.04h-0.02L85.42,56.31c-0.63-1.29-1.3-2.44-2-3.49c-0.18-0.28-0.38-0.54-0.57-0.8
			c-0.17-0.23-0.34-0.46-0.51-0.67c-0.03-0.03-0.05-0.07-0.08-0.1c-0.03-0.03-0.05-0.05-0.08-0.08c-0.52-0.61-1.08-1.14-1.66-1.65
			c-1.03-0.89-2.15-1.63-3.36-2.19c-2.05,3.6-3.23,7.77-3.23,12.21c0,13.67,11.08,24.75,24.75,24.75s24.75-11.08,24.75-24.75
			C123.43,55.08,122.25,50.92,120.2,47.32z"/>
		<path class="st0" d="M91.15,51.85c1.43,1.87,2.05,3.04,3.48,5.96l4.05,8.17l4.05-8.17c1.43-2.92,2.05-4.08,3.48-5.96
			c2.65-3.47,8.48-6.13,13.93-4.64c-4.27-7.42-12.28-12.43-21.46-12.43s-17.19,5-21.46,12.43C82.67,45.71,88.5,48.38,91.15,51.85z"
			/>
	</g>
	<g>
		<g>
			<path class="st0" d="M53.92,148.6l-0.32,2.63h-0.58v-1c-0.18-0.14-0.38-0.26-0.62-0.37s-0.59-0.16-1.05-0.16
				c-0.74,0-1.37,0.29-1.89,0.86c-0.52,0.57-0.78,1.34-0.78,2.31c0,1,0.21,1.79,0.62,2.38s1.06,0.88,1.95,0.88
				c0.38,0,0.8-0.05,1.28-0.16c0.48-0.11,0.88-0.25,1.22-0.42v1.81c-0.33,0.2-0.74,0.36-1.25,0.47S51.53,158,51.12,158
				c-1.53,0-2.71-0.45-3.53-1.34c-0.82-0.9-1.23-2.13-1.23-3.7c0-1.39,0.43-2.58,1.28-3.57c0.85-0.99,2.05-1.48,3.59-1.48
				c0.42,0,0.88,0.06,1.38,0.17C53.13,148.19,53.56,148.36,53.92,148.6z"/>
			<path class="st0" d="M61.74,156.8l-1.55,1.27c-0.24-0.08-0.44-0.2-0.62-0.37s-0.29-0.36-0.35-0.57l-1.21,0.69
				c-0.05,0.03-0.13,0.05-0.24,0.08s-0.21,0.04-0.29,0.04c-0.93,0-1.7-0.32-2.31-0.96c-0.61-0.64-0.91-1.53-0.91-2.66
				c0-1.08,0.32-1.97,0.95-2.67c0.63-0.7,1.44-1.05,2.41-1.05c0.39,0,0.75,0.08,1.09,0.23s0.56,0.29,0.67,0.41l1.12-0.41l0.39,0.12
				v4.41c0,0.39,0.07,0.69,0.2,0.92C61.24,156.51,61.45,156.68,61.74,156.8z M59.01,155.83v-3.02c-0.13-0.16-0.3-0.3-0.51-0.41
				c-0.21-0.11-0.46-0.17-0.76-0.17c-0.43,0-0.79,0.16-1.08,0.47s-0.43,0.84-0.43,1.57c0,0.58,0.13,1.04,0.4,1.4
				c0.27,0.35,0.64,0.52,1.12,0.52c0.27,0,0.53-0.04,0.77-0.13C58.77,155.98,58.93,155.9,59.01,155.83z"/>
			<path class="st0" d="M67.47,153.02c-0.12-0.1-0.3-0.19-0.52-0.26c-0.23-0.07-0.49-0.11-0.79-0.11c-0.36,0-0.66,0.05-0.9,0.16
				c-0.24,0.1-0.45,0.23-0.61,0.39v4.67h-1.97v-6.92l1.97-0.14v0.69l0.62-0.39c0.19-0.12,0.41-0.22,0.67-0.3
				c0.25-0.08,0.48-0.12,0.69-0.12c0.22,0,0.4,0.01,0.54,0.04c0.14,0.03,0.24,0.06,0.31,0.09V153.02z"/>
			<path class="st0" d="M70.47,150.08h-1.99v-1.85h1.99V150.08z M70.47,157.86h-1.99v-6.92l1.99-0.12V157.86z"/>
			<path class="st0" d="M78.31,157.86h-1.97v-4.34c0-0.25-0.09-0.48-0.27-0.67c-0.18-0.2-0.46-0.29-0.83-0.29
				c-0.36,0-0.65,0.07-0.89,0.22c-0.24,0.15-0.43,0.29-0.57,0.42v4.67H71.8v-6.92l1.97-0.14v0.68l0.82-0.47
				c0.25-0.14,0.5-0.24,0.75-0.31c0.26-0.06,0.51-0.09,0.76-0.09c0.68,0,1.22,0.21,1.61,0.63c0.39,0.42,0.59,0.98,0.59,1.67V157.86z
				"/>
			<path class="st0" d="M85.79,156.99c0,0.43-0.08,0.82-0.25,1.17s-0.38,0.64-0.65,0.89c-0.27,0.24-0.56,0.44-0.88,0.59
				s-0.63,0.26-0.92,0.33l-1.72-0.01v-1.12c0.98,0,1.64-0.09,1.98-0.28c0.34-0.19,0.51-0.51,0.51-0.96v-0.49l-0.69,0.46
				c-0.13,0.09-0.28,0.15-0.45,0.18c-0.17,0.03-0.33,0.05-0.48,0.05c-0.97,0-1.72-0.32-2.25-0.98c-0.53-0.65-0.8-1.54-0.8-2.66
				c0-1.04,0.31-1.9,0.93-2.57s1.4-1.01,2.35-1.01c0.31,0,0.62,0.05,0.95,0.15c0.32,0.1,0.62,0.27,0.88,0.49l1.08-0.41l0.41,0.12
				V156.99z M83.92,155.59v-2.77c-0.11-0.18-0.26-0.32-0.43-0.43s-0.42-0.16-0.72-0.16c-0.57,0-0.98,0.18-1.22,0.54
				c-0.24,0.36-0.37,0.77-0.37,1.24c0,0.62,0.13,1.14,0.38,1.54s0.64,0.6,1.15,0.6c0.26,0,0.5-0.05,0.71-0.15
				C83.64,155.9,83.8,155.76,83.92,155.59z"/>
			<path class="st0" d="M97,148.6l-0.32,2.63H96.1v-1c-0.18-0.14-0.38-0.26-0.62-0.37s-0.59-0.16-1.05-0.16
				c-0.74,0-1.37,0.29-1.89,0.86c-0.52,0.57-0.78,1.34-0.78,2.31c0,1,0.21,1.79,0.62,2.38s1.06,0.88,1.95,0.88
				c0.38,0,0.8-0.05,1.28-0.16c0.48-0.11,0.88-0.25,1.22-0.42v1.81c-0.33,0.2-0.74,0.36-1.25,0.47S94.61,158,94.2,158
				c-1.53,0-2.71-0.45-3.53-1.34c-0.82-0.9-1.23-2.13-1.23-3.7c0-1.39,0.43-2.58,1.28-3.57c0.85-0.99,2.05-1.48,3.59-1.48
				c0.42,0,0.88,0.06,1.38,0.17C96.21,148.19,96.64,148.36,97,148.6z"/>
			<path class="st0" d="M104.66,154.27c0,1.14-0.33,2.04-0.98,2.72c-0.65,0.67-1.54,1.01-2.68,1.01c-1.22,0-2.14-0.34-2.74-1.02
				c-0.61-0.68-0.91-1.58-0.91-2.71c0-1.02,0.33-1.9,0.98-2.63c0.66-0.73,1.55-1.09,2.67-1.09c1.13,0,2.03,0.34,2.68,1.01
				C104.33,152.23,104.66,153.13,104.66,154.27z M102.66,154.27c0-0.56-0.15-1.06-0.44-1.5c-0.29-0.44-0.7-0.66-1.22-0.66
				c-0.6,0-1.02,0.2-1.28,0.6c-0.26,0.4-0.38,0.92-0.38,1.56c0,0.6,0.15,1.1,0.46,1.53c0.31,0.42,0.72,0.63,1.24,0.63
				c0.58,0,0.99-0.17,1.24-0.51C102.54,155.57,102.66,155.03,102.66,154.27z"/>
			<path class="st0" d="M112.09,157.86h-1.97v-4.34c0-0.25-0.09-0.48-0.27-0.67c-0.18-0.2-0.46-0.29-0.83-0.29
				c-0.36,0-0.65,0.07-0.89,0.22c-0.24,0.15-0.43,0.29-0.57,0.42v4.67h-1.97v-6.92l1.97-0.14v0.68l0.82-0.47
				c0.24-0.14,0.5-0.24,0.75-0.31c0.26-0.06,0.51-0.09,0.76-0.09c0.68,0,1.22,0.21,1.61,0.63c0.39,0.42,0.59,0.98,0.59,1.67V157.86z
				"/>
			<path class="st0" d="M119.84,157.86h-1.97v-4.34c0-0.25-0.09-0.48-0.27-0.67c-0.18-0.2-0.46-0.29-0.83-0.29
				c-0.36,0-0.65,0.07-0.89,0.22c-0.24,0.15-0.43,0.29-0.57,0.42v4.67h-1.97v-6.92l1.97-0.14v0.68l0.82-0.47
				c0.24-0.14,0.5-0.24,0.75-0.31c0.26-0.06,0.51-0.09,0.76-0.09c0.68,0,1.22,0.21,1.61,0.63c0.39,0.42,0.59,0.98,0.59,1.67V157.86z
				"/>
			<path class="st0" d="M127.85,154.7h-5.14c0.11,0.56,0.33,0.97,0.67,1.22c0.34,0.25,0.75,0.37,1.23,0.37
				c0.39,0,0.81-0.06,1.28-0.17s0.84-0.26,1.11-0.45v1.74c-0.25,0.18-0.63,0.32-1.14,0.43c-0.51,0.1-0.92,0.16-1.23,0.16
				c-1.22,0-2.18-0.33-2.86-1s-1.03-1.56-1.03-2.68c0-1.13,0.35-2.04,1.05-2.73c0.7-0.69,1.58-1.04,2.63-1.04s1.89,0.37,2.51,1.11
				C127.55,152.4,127.86,153.41,127.85,154.7z M126.04,153.76c-0.1-0.51-0.3-0.9-0.59-1.17c-0.3-0.26-0.67-0.39-1.11-0.39
				c-0.51,0-0.9,0.14-1.16,0.42s-0.42,0.66-0.48,1.13H126.04z"/>
			<path class="st0" d="M134.01,157.29c-0.14,0.14-0.4,0.29-0.77,0.46s-0.84,0.24-1.41,0.24c-1.07,0-1.93-0.3-2.59-0.91
				c-0.66-0.61-0.99-1.53-0.99-2.77c0-0.99,0.34-1.87,1.02-2.63s1.54-1.14,2.59-1.14c0.43,0,0.83,0.04,1.18,0.11
				c0.35,0.07,0.62,0.15,0.8,0.24v2.05c-0.33-0.23-0.64-0.39-0.92-0.48s-0.59-0.13-0.93-0.13c-0.54,0-0.95,0.17-1.25,0.5
				c-0.3,0.34-0.45,0.84-0.45,1.52c0,0.64,0.18,1.12,0.53,1.44c0.36,0.32,0.78,0.48,1.26,0.48c0.43,0,0.79-0.07,1.09-0.2
				s0.57-0.3,0.84-0.51V157.29z"/>
			<path class="st0" d="M138.39,156.65l-1.43,1.34c-0.59-0.24-1.04-0.6-1.33-1.07s-0.44-1.03-0.44-1.68v-3.02h-0.66v-1.29h0.66
				v-2.28l1.97-0.14v2.43h1.03v1.27h-1.03v2.46c0,0.49,0.11,0.9,0.33,1.23C137.71,156.24,138.01,156.48,138.39,156.65z"/>
			<path class="st0" d="M145.69,154.7h-5.14c0.11,0.56,0.33,0.97,0.67,1.22c0.34,0.25,0.75,0.37,1.23,0.37
				c0.39,0,0.81-0.06,1.28-0.17s0.84-0.26,1.11-0.45v1.74c-0.25,0.18-0.63,0.32-1.14,0.43c-0.51,0.1-0.92,0.16-1.23,0.16
				c-1.22,0-2.18-0.33-2.86-1s-1.03-1.56-1.03-2.68c0-1.13,0.35-2.04,1.05-2.73c0.7-0.69,1.58-1.04,2.63-1.04s1.89,0.37,2.51,1.11
				C145.38,152.4,145.69,153.41,145.69,154.7z M143.87,153.76c-0.1-0.51-0.3-0.9-0.59-1.17c-0.3-0.26-0.67-0.39-1.11-0.39
				c-0.51,0-0.9,0.14-1.16,0.42s-0.42,0.66-0.48,1.13H143.87z"/>
			<path class="st0" d="M152.68,157.86h-1.5l-0.42-0.63l-1.04,0.57c-0.09,0.05-0.21,0.08-0.37,0.11c-0.16,0.02-0.3,0.04-0.42,0.04
				c-1.01,0-1.78-0.34-2.31-1.02c-0.53-0.68-0.79-1.54-0.79-2.57c0-1.12,0.31-2,0.95-2.66c0.64-0.66,1.48-0.99,2.53-0.99
				c0.3,0,0.56,0.02,0.79,0.07c0.23,0.05,0.45,0.13,0.66,0.25v-3.04h1.94V157.86z M150.75,155.73v-3.05
				c-0.11-0.13-0.29-0.25-0.53-0.34c-0.25-0.1-0.52-0.15-0.81-0.15c-0.54,0-0.94,0.16-1.21,0.47c-0.26,0.31-0.4,0.82-0.4,1.5
				c0,0.7,0.14,1.22,0.42,1.57c0.28,0.35,0.66,0.52,1.14,0.52c0.31,0,0.58-0.05,0.81-0.15C150.41,156,150.6,155.87,150.75,155.73z"
				/>
		</g>
		<g>
			<path class="st0" d="M156.04,157.82h-1.86v-1.9h1.86V157.82z"/>
			<path class="st0" d="M156.12,148.12h-0.6v1.36h-0.69v-1.36h-0.58v-0.59h1.87V148.12z M158.88,149.48h-0.6l-0.16-1.07l-0.44,1.07
				h-0.55l-0.4-1.07l-0.16,1.07h-0.6l0.41-1.95h0.57l0.47,1.27l0.48-1.27h0.57L158.88,149.48z"/>
		</g>
	</g>
</g>
</svg>
